:SAMPLES-PER-SECOND 30
:FULLY-SPECIFIED
:DEGREES
389
root  -3.95943 41.0357 0.29554 43.0188 -89.2741 -40.0627
RightUpLeg  2.0044 -1.34095 -1.34529
RightLeg  -6.42974 -20.4186 3.19886
RightFoot  2.46583 -0.347303 3.00483
RightToes  -3.1126e-008 1.75238e-005 3.56266e-009
Spine  9.53132 -3.90923 -11.0865
Spine1  -16.9315 -4.7349 15.6184
HEad  0.537191 1.70224 -1.63488
LeftShoulder1  -0.0820436 3.95336 -11.0077
LeftArm  -14.5124 -48.8888 -52.139
LeftForeArm  77.5952 -79.2762 -59.4716
LeftHand  -0.564582 -6.01519 6.06944
RightShoulder  0.0879972 -3.02742 12.1661
RightArm  -22.9831 -46.7632 44.6327
RightForeArm  83.3201 79.6567 88.5569
RightHand  -0.0865972 7.76248 -1.13318
LeftUpLeg  1.83726 1.35058 3.12628
LeftLeg  -5.05669 16.7063 -1.89615
LeftFoot  1.15009 0.414592 -3.85203
LeftToes  4.78049e-008 1.46235e-008 1.34219e-009
390
root  -4.04486 41.0414 0.235483 24.398 -88.6734 -21.3529
RightUpLeg  2.28159 -1.3449 -1.24313
RightLeg  -6.79054 -20.9819 3.42626
RightFoot  2.48256 -0.34493 2.96313
RightToes  -3.1126e-008 1.75238e-005 3.56266e-009
Spine  9.65996 -3.71309 -11.2246
Spine1  -17.3811 -4.50199 15.9364
HEad  0.658543 1.52588 -1.65381
LeftShoulder1  -0.142887 4.28934 -10.913
LeftArm  -19.0257 -49.0241 -49.6601
LeftForeArm  78.5709 -79.4229 -61.3398
LeftHand  -0.57123 -5.90392 6.19813
RightShoulder  0.105431 -2.93685 12.1499
RightArm  -22.7657 -47.0988 44.3247
RightForeArm  83.4569 79.6594 88.5923
RightHand  -0.0807819 7.89319 -1.07615
LeftUpLeg  1.86636 1.27394 3.20737
LeftLeg  -5.25544 16.186 -1.77187
LeftFoot  1.30435 0.447407 -4.10891
LeftToes  4.78049e-008 1.46235e-008 1.34219e-009
391
root  -4.11647 41.0526 0.185954 13.6572 -88.2618 -10.5454
RightUpLeg  2.3328 -1.40164 -1.31478
RightLeg  -6.70174 -21.2872 3.36523
RightFoot  2.41386 -0.348096 3.01638
RightToes  -3.1126e-008 1.75238e-005 3.56266e-009
Spine  9.31464 -3.50144 -11.1083
Spine1  -17.2955 -4.2581 15.5702
HEad  0.734008 1.26253 -1.497
LeftShoulder1  -0.132143 4.22625 -11.0332
LeftArm  -23.5119 -48.9707 -46.763
LeftForeArm  79.5528 -79.5386 -62.8343
LeftHand  -0.590498 -5.2939 6.7195
RightShoulder  0.0742899 -3.09867 12.1439
RightArm  -23.1023 -46.8778 44.6242
RightForeArm  80.8603 79.6497 85.6604
RightHand  0.00392303 7.93526 -0.340594
LeftUpLeg  2.13957 1.07652 3.06746
LeftLeg  -5.91107 16.0106 -1.84239
LeftFoot  1.6641 0.468216 -4.19612
LeftToes  4.78049e-008 1.46235e-008 1.34219e-009
392
root  -4.18478 41.0561 0.141983 11.5384 -87.9966 -8.47684
RightUpLeg  2.41953 -1.41735 -1.27298
RightLeg  -6.47418 -21.4914 3.29733
RightFoot  2.24953 -0.346409 3.007
RightToes  -3.1126e-008 1.75238e-005 3.56266e-009
Spine  8.90949 -3.34235 -10.6177
Spine1  -16.9476 -4.07681 14.8365
HEad  0.525569 1.18656 -1.70041
LeftShoulder1  -0.177888 4.47625 -11.0375
LeftArm  -27.0098 -48.2848 -44.8009
LeftForeArm  81.6498 -79.7281 -65.1535
LeftHand  -0.581809 -5.0832 6.749
RightShoulder  0.120676 -2.86522 12.4268
RightArm  -22.7101 -46.881 44.2166
RightForeArm  80.9674 79.6142 86.8428
RightHand  -0.0500727 7.9656 -0.812392
LeftUpLeg  2.33987 0.995004 3.05504
LeftLeg  -6.08372 15.8671 -1.76594
LeftFoot  1.75683 0.476254 -4.24071
LeftToes  4.78049e-008 1.46235e-008 1.34219e-009
393
root  -4.2482 41.0529 0.0891885 10.4657 -87.4894 -7.64503
RightUpLeg  2.87068 -1.33385 -1.08705
RightLeg  -6.56066 -22.0708 3.30444
RightFoot  2.13545 -0.345859 3.05012
RightToes  -3.1126e-008 1.75238e-005 3.56266e-009
Spine  9.18116 -3.21736 -10.3294
Spine1  -17.2449 -3.9166 14.4857
HEad  0.839673 1.43787 -1.21299
LeftShoulder1  -0.160468 4.36708 -11.3597
LeftArm  -29.2791 -47.2486 -43.063
LeftForeArm  83.5697 -79.8896 -67.5911
LeftHand  -0.613008 -5.23475 7.00412
RightShoulder  0.111439 -2.91175 12.3944
RightArm  -22.6049 -46.6815 44.5813
RightForeArm  80.008 79.5902 86.258
RightHand  -0.103306 7.75213 -1.28641
LeftUpLeg  2.5672 1.13822 3.22898
LeftLeg  -5.94957 15.2172 -1.70092
LeftFoot  1.65627 0.47919 -4.26598
LeftToes  4.78049e-008 1.46235e-008 1.34219e-009
394
root  -4.2928 41.0443 0.0567072 9.92285 -87.1315 -7.19817
RightUpLeg  3.13925 -1.40151 -1.03236
RightLeg  -6.67241 -22.3345 3.46822
RightFoot  1.98432 -0.326799 2.91197
RightToes  -3.1126e-008 1.75238e-005 3.56266e-009
Spine  8.68667 -3.09514 -9.67989
Spine1  -16.6456 -3.78427 13.5046
HEad  0.90891 0.715342 -1.55076
LeftShoulder1  -0.195455 4.56061 -11.2466
LeftArm  -30.127 -46.5493 -42.3918
LeftForeArm  84.6854 -79.9656 -68.6466
LeftHand  -0.61137 -5.62638 6.75525
RightShoulder  0.100666 -2.97137 12.5734
RightArm  -22.8865 -46.4244 44.8933
RightForeArm  80.0777 79.6188 85.4693
RightHand  -0.00788053 8.09172 -0.447806
LeftUpLeg  2.5102 1.21045 3.32864
LeftLeg  -5.5595 14.7451 -1.55274
LeftFoot  1.46037 0.479176 -4.27046
LeftToes  4.78049e-008 1.46235e-008 1.34219e-009
395
root  -4.32669 41.0389 0.0159405 7.85153 -86.7641 -5.22771
RightUpLeg  3.32565 -1.57167 -1.08897
RightLeg  -6.62311 -22.5396 3.60658
RightFoot  1.76718 -0.306122 2.76821
RightToes  -3.1126e-008 1.75238e-005 3.56266e-009
Spine  8.65044 -2.93598 -9.63044
Spine1  -16.6344 -3.6202 13.3524
HEad  1.24632 0.722839 -1.23066
LeftShoulder1  -0.198908 4.56058 -11.6106
LeftArm  -30.0625 -45.7934 -41.8625
LeftForeArm  85.6414 -80.0241 -69.3568
LeftHand  -0.591078 -5.42028 6.65678
RightShoulder  0.0904447 -3.01936 12.404
RightArm  -22.3245 -46.4876 44.9804
RightForeArm  81.235 79.6235 86.9021
RightHand  -0.16374 7.8217 -1.82627
LeftUpLeg  2.5458 1.26141 3.37533
LeftLeg  -5.38492 14.2318 -1.49964
LeftFoot  1.39296 0.480863 -4.31823
LeftToes  4.78049e-008 1.46235e-008 1.34219e-009
396
root  -4.35624 41.0363 -0.0264878 6.22124 -86.4444 -3.56311
RightUpLeg  3.29692 -1.63787 -1.0971
RightLeg  -6.46742 -22.826 3.60504
RightFoot  1.5987 -0.298636 2.72833
RightToes  -3.1126e-008 1.75238e-005 3.56266e-009
Spine  8.16664 -2.87733 -9.56503
Spine1  -16.2095 -3.56019 13.0001
HEad  1.43361 0.105515 -1.05127
LeftShoulder1  -0.225836 4.71669 -11.3852
LeftArm  -29.4709 -45.2107 -41.8366
LeftForeArm  86.4148 -80.0815 -70.7989
LeftHand  -0.563553 -5.2106 6.47738
RightShoulder  0.0797608 -3.07875 12.6425
RightArm  -22.5006 -46.1493 44.8468
RightForeArm  80.2517 79.6498 84.7361
RightHand  0.110625 8.43583 0.518032
LeftUpLeg  2.54728 1.20821 3.34464
LeftLeg  -5.48995 14.0366 -1.4689
LeftFoot  1.43467 0.485481 -4.42008
LeftToes  4.78049e-008 1.46235e-008 1.34219e-009
397
root  -4.38175 41.0331 -0.0640451 6.87057 -85.8803 -4.25667
RightUpLeg  3.50231 -1.59746 -0.938526
RightLeg  -6.62569 -23.454 3.78257
RightFoot  1.52331 -0.293656 2.69586
RightToes  -3.1126e-008 1.75238e-005 3.56266e-009
Spine  7.99212 -2.89957 -9.57076
Spine1  -16.0424 -3.59008 13.0183
HEad  1.66501 -0.0696833 -0.931393
LeftShoulder1  -0.238924 4.79125 -11.3308
LeftArm  -28.8606 -44.7079 -42.3671
LeftForeArm  87.6195 -80.1452 -71.3783
LeftHand  -0.535497 -5.33437 6.10567
RightShoulder  0.129108 -2.82646 12.5675
RightArm  -22.0354 -46.2711 44.8372
RightForeArm  81.4836 79.6457 86.6234
RightHand  -0.152005 7.45192 -1.73444
LeftUpLeg  2.43353 1.33349 3.54174
LeftLeg  -5.23415 13.2738 -1.36369
LeftFoot  1.35241 0.481204 -4.38332
LeftToes  4.78049e-008 1.46235e-008 1.34219e-009
398
root  -4.37798 41.0311 -0.101074 6.08844 -85.3126 -3.57161
RightUpLeg  3.66817 -1.57811 -0.852941
RightLeg  -6.68039 -24.0491 3.83548
RightFoot  1.47136 -0.286367 2.63878
RightToes  -3.1126e-008 1.75238e-005 3.56266e-009
Spine  8.24424 -2.77305 -9.53934
Spine1  -16.2667 -3.45383 12.9043
HEad  1.36538 0.0822516 -1.10843
LeftShoulder1  -0.163301 4.3679 -11.6725
LeftArm  -28.3876 -44.5133 -42.3625
LeftForeArm  87.7644 -80.1543 -71.6507
LeftHand  -0.547799 -5.24639 6.28263
RightShoulder  0.138776 -2.77588 12.508
RightArm  -22.7171 -46.5025 45.0479
RightForeArm  81.5411 79.6621 86.2183
RightHand  0.0300426 8.14805 -0.117237
LeftUpLeg  2.39967 1.38555 3.63167
LeftLeg  -5.12427 12.5861 -1.31275
LeftFoot  1.38756 0.477526 -4.34753
LeftToes  4.78049e-008 1.46235e-008 1.34219e-009
399
root  -4.35213 41.0281 -0.150221 4.38106 -84.5331 -1.98825
RightUpLeg  3.81793 -1.6763 -0.871102
RightLeg  -6.6528 -24.7187 3.91993
RightFoot  1.3641 -0.27891 2.58211
RightToes  -3.1126e-008 1.75238e-005 3.56266e-009
Spine  8.3734 -2.83286 -9.65125
Spine1  -16.0506 -3.54605 12.7741
HEad  0.931919 -0.296486 -1.20214
LeftShoulder1  -0.092089 3.99159 -11.7174
LeftArm  -28.2864 -44.3285 -42.4803
LeftForeArm  86.866 -80.1001 -70.5335
LeftHand  -0.589214 -5.64569 6.51409
RightShoulder  0.0909047 -3.01724 12.3995
RightArm  -22.18 -45.9829 45.1572
RightForeArm  80.8719 79.6584 85.3938
RightHand  -0.0495675 8.02661 -0.806433
LeftUpLeg  2.33577 1.35838 3.62106
LeftLeg  -5.0525 11.8535 -1.23673
LeftFoot  1.46018 0.47926 -4.37931
LeftToes  4.78049e-008 1.46235e-008 1.34219e-009
400
root  -4.31817 41.0286 -0.184774 4.05446 -83.8936 -1.71007
RightUpLeg  3.91306 -1.66711 -0.799095
RightLeg  -6.76469 -25.3741 4.04433
RightFoot  1.33522 -0.271759 2.52792
RightToes  -3.1126e-008 1.75238e-005 3.56266e-009
Spine  8.45356 -2.8166 -9.63377
Spine1  -15.8958 -3.55424 12.7309
HEad  0.447109 -0.440907 -1.45652
LeftShoulder1  -0.0574106 3.80063 -12.13
LeftArm  -28.0899 -44.1416 -42.521
LeftForeArm  87.2407 -80.1203 -70.7275
LeftHand  -0.56236 -5.65183 6.22787
RightShoulder  0.165613 -2.63918 12.5223
RightArm  -22.0275 -45.4579 44.9632
RightForeArm  80.5156 79.6552 84.9732
RightHand  -0.137954 7.73444 -1.58607
LeftUpLeg  2.11066 1.36972 3.66474
LeftLeg  -4.82134 11.2841 -1.14142
LeftFoot  1.47748 0.484027 -4.43323
LeftToes  4.78049e-008 1.46235e-008 1.34219e-009
401
root  -4.28211 41.0285 -0.212125 3.66397 -83.4301 -1.33022
RightUpLeg  3.97164 -1.6864 -0.777797
RightLeg  -6.92475 -25.8328 4.1869
RightFoot  1.33401 -0.257588 2.4197
RightToes  -3.1126e-008 1.75238e-005 3.56266e-009
Spine  8.4937 -2.75199 -9.5177
Spine1  -15.7537 -3.50069 12.5409
HEad  0.0486868 -0.679361 -1.36664
LeftShoulder1  -0.08537 3.94231 -12.3303
LeftArm  -27.7362 -43.7757 -43.0349
LeftForeArm  88.0733 -80.1659 -71.2732
LeftHand  -0.546516 -5.60859 6.08473
RightShoulder  0.196219 -2.49309 12.751
RightArm  -21.5124 -44.2921 44.5788
RightForeArm  79.4206 79.6363 83.8047
RightHand  -0.0623459 7.82157 -0.919126
LeftUpLeg  1.93161 1.4031 3.70919
LeftLeg  -4.69265 10.7525 -1.11968
LeftFoot  1.51183 0.48751 -4.40707
LeftToes  4.78049e-008 1.46235e-008 1.34219e-009
402
root  -4.23991 41.0281 -0.230847 3.19214 -83.5063 -0.910095
RightUpLeg  3.91561 -1.72524 -0.81748
RightLeg  -6.83953 -25.7396 4.16886
RightFoot  1.30608 -0.241281 2.25755
RightToes  -3.1126e-008 1.75238e-005 3.56266e-009
Spine  8.28787 -2.53778 -8.90038
Spine1  -15.339 -3.26 11.5289
HEad  -0.255942 -0.982842 -1.14492
LeftShoulder1  -0.0426337 3.72245 -12.3882
LeftArm  -28.1682 -42.9665 -42.8994
LeftForeArm  88.2008 -80.1744 -71.5384
LeftHand  -0.536704 -5.6845 5.94366
RightShoulder  0.202043 -2.48291 13.1656
RightArm  -20.6335 -42.1772 44.1668
RightForeArm  76.5075 79.5799 80.2051
RightHand  -0.0512602 7.87432 -0.820516
LeftUpLeg  1.92194 1.38637 3.68908
LeftLeg  -4.6701 10.8125 -1.11932
LeftFoot  1.5633 0.506419 -4.56138
LeftToes  4.78049e-008 1.46235e-008 1.34219e-009
